<?xml version="1.0" encoding="utf-8"?>
<!-- Generator: Adobe Illustrator 15.1.0, SVG Export Plug-In . SVG Version: 6.00 Build 0)  -->
<!DOCTYPE svg PUBLIC "-//W3C//DTD SVG 1.1//EN" "http://www.w3.org/Graphics/SVG/1.1/DTD/svg11.dtd">
<svg version="1.1" id="Layer_1" xmlns="http://www.w3.org/2000/svg" xmlns:xlink="http://www.w3.org/1999/xlink" x="0px" y="0px"
	 width="423.277px" height="299.909px" viewBox="0 0 423.277 299.909" enable-background="new 0 0 423.277 299.909"
	 xml:space="preserve">
<g>
	<path fill-rule="evenodd" clip-rule="evenodd" fill="#394573" d="M80.469,269.593H4.339H0l2.25-3.668l19.163-31.274L2.25,203.368
		L0,199.699h4.339H87.91h2.451v2.422v55.104l-0.012,0.068c-0.101,3.422-0.971,6.137-2.543,8.17v0.017
		c-1.626,2.126-3.931,3.453-6.828,4.069L80.469,269.593L80.469,269.593z M8.671,264.753L8.671,264.753h71.542
		c1.616-0.385,2.868-1.109,3.715-2.213v0.01c0.933-1.219,1.461-2.983,1.541-5.326h-0.007v-52.686H8.671l17.679,28.863l0.771,1.249
		l-0.771,1.247L8.671,264.753z"/>
	<linearGradient id="SVGID_1_" gradientUnits="userSpaceOnUse" x1="-1264.0605" y1="-92.0166" x2="51.3782" y2="235.9589">
		<stop  offset="0" style="stop-color:#394573"/>
		<stop  offset="0.1" style="stop-color:#9CA3C1"/>
		<stop  offset="0.22" style="stop-color:#626F9B"/>
		<stop  offset="0.34" style="stop-color:#394573"/>
		<stop  offset="0.5" style="stop-color:#626F9B"/>
		<stop  offset="0.66" style="stop-color:#9CA3C1"/>
		<stop  offset="0.83" style="stop-color:#626F9B"/>
		<stop  offset="1" style="stop-color:#394573"/>
	</linearGradient>
	
		<path fill-rule="evenodd" clip-rule="evenodd" fill="url(#SVGID_1_)" stroke="#394573" stroke-width="0.216" stroke-miterlimit="2.6131" d="
		M80.469,267.174H4.331l19.938-32.523l-19.938-32.53H87.91c0,18.363,0,36.737,0,55.104
		C87.743,263.035,85.107,266.195,80.469,267.174z"/>
	<polygon fill-rule="evenodd" clip-rule="evenodd" fill="#8D96B2" points="87.261,261.032 87.261,263.02 12.744,261.848 
		12.764,261.378 	"/>
	<polygon fill-rule="evenodd" clip-rule="evenodd" fill="#8D96B2" points="87.261,257.71 87.261,259.69 15.456,258.518 
		15.473,258.055 	"/>
	<polygon fill-rule="evenodd" clip-rule="evenodd" fill="#8D96B2" points="81.254,254.387 81.254,256.369 17.113,255.198 
		17.132,254.735 	"/>
	<polygon fill-rule="evenodd" clip-rule="evenodd" fill="#8D96B2" points="81.254,251.066 81.254,253.045 18.874,251.875 
		18.89,251.414 	"/>
	<polygon fill-rule="evenodd" clip-rule="evenodd" fill="#8D96B2" points="81.254,247.736 81.254,249.725 20.87,248.546 
		20.878,248.09 	"/>
	<polygon fill-rule="evenodd" clip-rule="evenodd" fill="#8D96B2" points="81.254,244.422 81.254,246.411 22.508,245.225 
		22.523,244.762 	"/>
	<polygon fill-rule="evenodd" clip-rule="evenodd" fill="#8D96B2" points="81.254,241.094 81.254,243.081 24.385,241.91 
		24.4,241.439 	"/>
	<polygon fill-rule="evenodd" clip-rule="evenodd" fill="#8D96B2" points="81.254,237.771 81.254,239.76 26.62,238.582 
		26.627,238.119 	"/>
	<polygon fill-rule="evenodd" clip-rule="evenodd" fill="#8D96B2" points="81.254,234.451 81.254,236.439 28.022,235.267 
		28.034,234.797 	"/>
	<polygon fill-rule="evenodd" clip-rule="evenodd" fill="#8D96B2" points="81.254,231.127 81.254,233.116 26.62,231.937 
		26.627,231.474 	"/>
	<polygon fill-rule="evenodd" clip-rule="evenodd" fill="#8D96B2" points="81.254,227.806 81.254,229.788 24.385,228.617 
		24.4,228.154 	"/>
	<polygon fill-rule="evenodd" clip-rule="evenodd" fill="#8D96B2" points="81.254,224.485 81.254,226.474 22.508,225.293 
		22.523,224.823 	"/>
	<polygon fill-rule="evenodd" clip-rule="evenodd" fill="#8D96B2" points="81.254,221.162 81.254,223.144 20.87,221.972 
		20.878,221.502 	"/>
	<polygon fill-rule="evenodd" clip-rule="evenodd" fill="#8D96B2" points="81.254,217.834 81.254,219.823 18.874,218.642 
		18.89,218.181 	"/>
	<polygon fill-rule="evenodd" clip-rule="evenodd" fill="#8D96B2" points="81.254,214.52 81.254,216.5 17.113,215.321 
		17.132,214.858 	"/>
	<polygon fill-rule="evenodd" clip-rule="evenodd" fill="#8D96B2" points="81.254,211.197 81.254,213.179 15.237,212 
		15.252,211.538 	"/>
	<polygon fill-rule="evenodd" clip-rule="evenodd" fill="#8D96B2" points="81.254,207.869 81.254,209.858 12.744,208.677 
		12.763,208.216 	"/>
	<path fill-rule="evenodd" clip-rule="evenodd" fill="#1A1A1A" d="M89.238,237.949c-0.085,6.327-0.239,12.662-0.239,18.989
		c0,1.365-0.151,1.786-0.305,3.761c-0.367,3.125-5.883,8.089-11.029,7.721c1.286,0,14.424-4.653,5.685-8.921
		c-12.686-4.873-36.854-11-39.768-15.516c-1.087-1.68-1.311-4.438-1.149-6.921C58.025,237.41,73.631,237.601,89.238,237.949z"/>
	<g>
		<linearGradient id="SVGID_2_" gradientUnits="userSpaceOnUse" x1="144.9053" y1="3.6841" x2="144.9053" y2="177.8936">
			<stop  offset="0" style="stop-color:#394573"/>
			<stop  offset="0.16" style="stop-color:#394573"/>
			<stop  offset="0.5152" style="stop-color:#8186A8"/>
			<stop  offset="0.6727" style="stop-color:#74799D"/>
			<stop  offset="0.7939" style="stop-color:#394573"/>
			<stop  offset="0.897" style="stop-color:#394573"/>
			<stop  offset="1" style="stop-color:#394573"/>
		</linearGradient>
		<path fill="url(#SVGID_2_)" d="M221.581,115.821v17.167c0,7.614-2.697,10.315-10.307,10.315h-12.509v24.285
			c0,7.604-2.704,10.305-10.306,10.305h-25.275c-7.851,0-10.3-2.701-10.3-10.305v-24.285H78.535
			c-7.606,0-10.305-2.701-10.305-10.315v-16.192c0-8.1,0.489-11.032,5.398-16.678l74.59-89.073c4.908-5.638,7.852-7.36,15.948-7.36
			h24.292c7.603,0,10.306,2.701,10.306,10.312v91.517h12.509C218.883,105.513,221.581,108.218,221.581,115.821z M152.883,64.042
			l-34.355,41.471h34.355V64.042z"/>
		<linearGradient id="SVGID_3_" gradientUnits="userSpaceOnUse" x1="285.1206" y1="0" x2="285.1206" y2="181.5762">
			<stop  offset="0" style="stop-color:#394573"/>
			<stop  offset="0.16" style="stop-color:#394573"/>
			<stop  offset="0.5152" style="stop-color:#8186A8"/>
			<stop  offset="0.6727" style="stop-color:#74799D"/>
			<stop  offset="0.7939" style="stop-color:#394573"/>
			<stop  offset="0.897" style="stop-color:#394573"/>
			<stop  offset="1" style="stop-color:#394573"/>
		</linearGradient>
		<path fill="url(#SVGID_3_)" d="M285.118,0c44.419,0,69.929,24.793,69.929,63.802v53.733c0,39.498-25.51,64.04-69.929,64.04
			c-44.404,0-69.923-24.542-69.923-64.04V63.802C215.195,24.793,240.713,0,285.118,0z M285.118,42.951
			c-13.249,0-21.338,6.863-21.338,18.886v57.656c0,12.27,8.089,19.144,21.338,19.144c13.252,0,21.352-6.874,21.352-19.144V61.837
			C306.469,49.814,298.37,42.951,285.118,42.951z"/>
	</g>
	<path fill-rule="evenodd" clip-rule="evenodd" fill="#394573" d="M343.062,264.753h71.544l-17.68-28.855l-0.771-1.247l0.771-1.249
		l17.68-28.863h-76.784v52.686h-0.008c0.076,2.35,0.601,4.107,1.541,5.326C340.196,263.644,341.435,264.369,343.062,264.753
		L343.062,264.753z M418.945,269.593L418.945,269.593h-76.137l-0.501-0.045c-2.898-0.616-5.202-1.951-6.837-4.086
		c-1.564-2.033-2.442-4.748-2.535-8.17l-0.016-0.068v-55.104v-2.422h2.451h83.574h4.332l-2.243,3.669l-19.167,31.283l19.167,31.274
		l2.243,3.668H418.945z"/>
	<linearGradient id="SVGID_4_" gradientUnits="userSpaceOnUse" x1="-932.7603" y1="-92.874" x2="382.5799" y2="235.0769">
		<stop  offset="0" style="stop-color:#394573"/>
		<stop  offset="0.1" style="stop-color:#9CA3C1"/>
		<stop  offset="0.22" style="stop-color:#626F9B"/>
		<stop  offset="0.34" style="stop-color:#394573"/>
		<stop  offset="0.5" style="stop-color:#626F9B"/>
		<stop  offset="0.66" style="stop-color:#9CA3C1"/>
		<stop  offset="0.83" style="stop-color:#626F9B"/>
		<stop  offset="1" style="stop-color:#394573"/>
	</linearGradient>
	<path fill-rule="evenodd" clip-rule="evenodd" fill="url(#SVGID_4_)" d="M342.808,267.174h76.137l-19.93-32.523l19.93-32.53
		h-83.574c0,18.363,0,36.737,0,55.104C335.541,263.035,338.176,266.195,342.808,267.174z"/>
	<polygon fill-rule="evenodd" clip-rule="evenodd" fill="#8D96B2" points="336.357,261.032 336.357,263.02 410.538,261.848 
		410.52,261.378 	"/>
	<polygon fill-rule="evenodd" clip-rule="evenodd" fill="#8D96B2" points="336.357,257.71 336.357,259.69 407.833,258.518 
		407.816,258.055 	"/>
	<polygon fill-rule="evenodd" clip-rule="evenodd" fill="#8D96B2" points="342.021,254.387 342.021,256.369 406.167,255.198 
		406.151,254.735 	"/>
	<polygon fill-rule="evenodd" clip-rule="evenodd" fill="#8D96B2" points="342.021,251.066 342.021,253.045 404.41,251.875 
		404.394,251.414 	"/>
	<polygon fill-rule="evenodd" clip-rule="evenodd" fill="#8D96B2" points="342.021,247.736 342.021,249.725 402.407,248.546 
		402.398,248.09 	"/>
	<polygon fill-rule="evenodd" clip-rule="evenodd" fill="#8D96B2" points="342.021,244.422 342.021,246.411 400.772,245.225 
		400.756,244.762 	"/>
	<polygon fill-rule="evenodd" clip-rule="evenodd" fill="#8D96B2" points="342.021,241.094 342.021,243.081 398.892,241.91 
		398.876,241.439 	"/>
	<polygon fill-rule="evenodd" clip-rule="evenodd" fill="#8D96B2" points="342.021,237.771 342.021,239.76 396.665,238.582 
		396.656,238.119 	"/>
	<polygon fill-rule="evenodd" clip-rule="evenodd" fill="#8D96B2" points="342.021,234.451 342.021,236.439 395.253,235.267 
		395.247,234.797 	"/>
	<polygon fill-rule="evenodd" clip-rule="evenodd" fill="#8D96B2" points="342.021,231.127 342.021,233.116 396.665,231.937 
		396.656,231.474 	"/>
	<polygon fill-rule="evenodd" clip-rule="evenodd" fill="#8D96B2" points="342.021,227.806 342.021,229.788 398.892,228.617 
		398.876,228.154 	"/>
	<polygon fill-rule="evenodd" clip-rule="evenodd" fill="#8D96B2" points="342.021,224.485 342.021,226.474 400.772,225.293 
		400.756,224.823 	"/>
	<polygon fill-rule="evenodd" clip-rule="evenodd" fill="#8D96B2" points="342.021,221.162 342.021,223.144 402.407,221.972 
		402.398,221.502 	"/>
	<polygon fill-rule="evenodd" clip-rule="evenodd" fill="#8D96B2" points="342.021,217.834 342.021,219.823 404.41,218.642 
		404.394,218.181 	"/>
	<polygon fill-rule="evenodd" clip-rule="evenodd" fill="#8D96B2" points="342.021,214.52 342.021,216.5 406.167,215.321 
		406.151,214.858 	"/>
	<polygon fill-rule="evenodd" clip-rule="evenodd" fill="#8D96B2" points="342.021,211.197 342.021,213.179 408.04,212 
		408.024,211.538 	"/>
	<polygon fill-rule="evenodd" clip-rule="evenodd" fill="#8D96B2" points="342.021,207.869 342.021,209.858 410.538,208.677 
		410.521,208.216 	"/>
	<path fill-rule="evenodd" clip-rule="evenodd" fill="#1A1A1A" d="M333.975,237.949c0.085,6.327,0.239,12.662,0.239,18.989
		c0,1.365,0.151,1.786,0.305,3.761c0.367,3.125,5.883,8.089,11.029,7.721c-1.286,0-14.424-4.653-5.685-8.921
		c12.686-4.873,36.854-11,39.768-15.516c1.087-1.68,1.311-4.438,1.149-6.921C365.188,237.41,349.582,237.601,333.975,237.949z"/>
	<path fill-rule="evenodd" clip-rule="evenodd" fill="#394573" d="M51.364,174.235h320.981c2.459,0,4.71,1.01,6.327,2.637h0.016
		c1.619,1.617,2.636,3.868,2.636,6.343v54.75v2.45h-2.45H44.832h-2.447v-2.45v-54.75c0-2.475,1.013-4.726,2.636-6.343
		C46.647,175.245,48.89,174.235,51.364,174.235L51.364,174.235z M372.345,179.129L372.345,179.129H51.364
		c-1.118,0-2.142,0.47-2.879,1.202c-0.743,0.74-1.199,1.765-1.199,2.883v52.299h329.137v-52.299c0-1.118-0.455-2.143-1.195-2.883
		l0,0C374.489,179.592,373.463,179.129,372.345,179.129z"/>
	<linearGradient id="SVGID_5_" gradientUnits="userSpaceOnUse" x1="390.6313" y1="207.3208" x2="-1371.425" y2="207.321">
		<stop  offset="0" style="stop-color:#E3E4EC"/>
		<stop  offset="0.0364" style="stop-color:#FFFFFF"/>
		<stop  offset="0.2" style="stop-color:#FFFFFF"/>
		<stop  offset="0.2424" style="stop-color:#E0E1EA"/>
	</linearGradient>
	<path fill-rule="evenodd" clip-rule="evenodd" fill="url(#SVGID_5_)" d="M50.812,176.678h320.975c3.598,0,6.535,2.944,6.535,6.536
		v54.75H44.28v-54.75C44.28,179.623,47.221,176.678,50.812,176.678z"/>
	<g>
		<polygon fill-rule="evenodd" clip-rule="evenodd" fill="#DFE3EE" points="376.294,232.915 376.294,234.904 352.18,233.725 
			352.187,233.255 		"/>
		<polygon fill-rule="evenodd" clip-rule="evenodd" fill="#DFE3EE" points="376.294,229.788 376.294,231.777 352.18,230.605 
			352.187,230.135 		"/>
		<polygon fill-rule="evenodd" clip-rule="evenodd" fill="#DFE3EE" points="376.294,226.659 376.294,228.647 352.18,227.475 
			352.187,227.005 		"/>
		<polygon fill-rule="evenodd" clip-rule="evenodd" fill="#DFE3EE" points="376.294,223.536 376.294,225.517 352.18,224.346 
			352.187,223.883 		"/>
		<polygon fill-rule="evenodd" clip-rule="evenodd" fill="#DFE3EE" points="376.294,220.409 376.294,222.395 352.18,221.216 
			352.187,220.747 		"/>
		<polygon fill-rule="evenodd" clip-rule="evenodd" fill="#DFE3EE" points="376.294,217.272 376.294,219.258 352.18,218.086 
			352.187,217.626 		"/>
		<polygon fill-rule="evenodd" clip-rule="evenodd" fill="#DFE3EE" points="376.294,214.157 376.294,216.138 352.18,214.959 
			352.187,214.497 		"/>
		<polygon fill-rule="evenodd" clip-rule="evenodd" fill="#DFE3EE" points="376.294,211.02 376.294,213.008 352.18,211.83 
			352.187,211.375 		"/>
		<polygon fill-rule="evenodd" clip-rule="evenodd" fill="#DFE3EE" points="376.294,207.9 376.294,209.879 352.18,208.708 
			352.187,208.247 		"/>
		<polygon fill-rule="evenodd" clip-rule="evenodd" fill="#DFE3EE" points="376.294,204.77 376.294,206.759 352.18,205.571 
			352.187,205.118 		"/>
		<polygon fill-rule="evenodd" clip-rule="evenodd" fill="#DFE3EE" points="376.294,201.641 376.294,203.629 352.18,202.451 
			352.187,201.981 		"/>
		<polygon fill-rule="evenodd" clip-rule="evenodd" fill="#DFE3EE" points="376.294,198.521 376.294,200.5 352.18,199.322 
			352.187,198.868 		"/>
		<polygon fill-rule="evenodd" clip-rule="evenodd" fill="#DFE3EE" points="376.294,195.384 376.294,197.379 352.18,196.201 
			352.187,195.729 		"/>
		<polygon fill-rule="evenodd" clip-rule="evenodd" fill="#DFE3EE" points="376.294,192.261 376.294,194.25 352.18,193.072 
			352.187,192.609 		"/>
		<polygon fill-rule="evenodd" clip-rule="evenodd" fill="#DFE3EE" points="376.294,189.132 376.294,191.121 352.18,189.942 
			352.187,189.479 		"/>
		<polygon fill-rule="evenodd" clip-rule="evenodd" fill="#DFE3EE" points="376.294,186.004 376.294,187.991 352.18,186.812 
			352.187,186.349 		"/>
		<polygon fill-rule="evenodd" clip-rule="evenodd" fill="#DFE3EE" points="376.294,182.875 376.294,184.864 352.18,183.693 
			352.187,183.222 		"/>
		<polygon fill-rule="evenodd" clip-rule="evenodd" fill="#DFE3EE" points="376.294,179.753 376.294,181.742 352.18,180.563 
			352.187,180.1 		"/>
	</g>
	<g>
		<polygon fill-rule="evenodd" clip-rule="evenodd" fill="#DFE3EE" points="46.558,232.915 46.558,234.904 70.67,233.725 
			70.662,233.255 		"/>
		<polygon fill-rule="evenodd" clip-rule="evenodd" fill="#DFE3EE" points="46.558,229.788 46.558,231.777 70.67,230.605 
			70.662,230.135 		"/>
		<polygon fill-rule="evenodd" clip-rule="evenodd" fill="#DFE3EE" points="46.558,226.659 46.558,228.647 70.67,227.475 
			70.662,227.005 		"/>
		<polygon fill-rule="evenodd" clip-rule="evenodd" fill="#DFE3EE" points="46.558,223.536 46.558,225.517 70.67,224.346 
			70.662,223.883 		"/>
		<polygon fill-rule="evenodd" clip-rule="evenodd" fill="#DFE3EE" points="46.558,220.409 46.558,222.395 70.67,221.216 
			70.662,220.747 		"/>
		<polygon fill-rule="evenodd" clip-rule="evenodd" fill="#DFE3EE" points="46.558,217.272 46.558,219.258 70.67,218.086 
			70.662,217.626 		"/>
		<polygon fill-rule="evenodd" clip-rule="evenodd" fill="#DFE3EE" points="46.558,214.157 46.558,216.138 70.67,214.959 
			70.662,214.497 		"/>
		<polygon fill-rule="evenodd" clip-rule="evenodd" fill="#DFE3EE" points="46.558,211.02 46.558,213.008 70.67,211.83 
			70.662,211.375 		"/>
		<polygon fill-rule="evenodd" clip-rule="evenodd" fill="#DFE3EE" points="46.558,207.9 46.558,209.879 70.67,208.708 
			70.662,208.247 		"/>
		<polygon fill-rule="evenodd" clip-rule="evenodd" fill="#DFE3EE" points="46.558,204.77 46.558,206.759 70.67,205.571 
			70.662,205.118 		"/>
		<polygon fill-rule="evenodd" clip-rule="evenodd" fill="#DFE3EE" points="46.558,201.641 46.558,203.629 70.67,202.451 
			70.662,201.981 		"/>
		<polygon fill-rule="evenodd" clip-rule="evenodd" fill="#DFE3EE" points="46.558,198.521 46.558,200.5 70.67,199.322 
			70.662,198.868 		"/>
		<polygon fill-rule="evenodd" clip-rule="evenodd" fill="#DFE3EE" points="46.558,195.384 46.558,197.379 70.67,196.201 
			70.662,195.729 		"/>
		<polygon fill-rule="evenodd" clip-rule="evenodd" fill="#DFE3EE" points="46.558,192.261 46.558,194.25 70.67,193.072 
			70.662,192.609 		"/>
		<polygon fill-rule="evenodd" clip-rule="evenodd" fill="#DFE3EE" points="46.558,189.132 46.558,191.121 70.67,189.942 
			70.662,189.479 		"/>
		<polygon fill-rule="evenodd" clip-rule="evenodd" fill="#DFE3EE" points="46.558,186.004 46.558,187.991 70.67,186.812 
			70.662,186.349 		"/>
		<polygon fill-rule="evenodd" clip-rule="evenodd" fill="#DFE3EE" points="46.558,182.875 46.558,184.864 70.67,183.693 
			70.662,183.222 		"/>
		<polygon fill-rule="evenodd" clip-rule="evenodd" fill="#DFE3EE" points="46.558,179.753 46.558,181.742 70.67,180.563 
			70.662,180.1 		"/>
	</g>
	<g>
		<path fill="#394573" d="M57.771,194.744h4.736v7.977c0.604-0.569,2.178-2.064,5.132-2.064c2.208,0,4.667,1.209,6.093,3.035
			c1.568,1.988,1.568,4.802,1.568,6.266v11.153h-4.739v-10.121c0-2.135-0.143-5.987-4.063-5.987c-3.992,0-3.992,4.387-3.992,6.059
			v10.05h-4.736V194.744z"/>
		<path fill="#394573" d="M96.611,201.333v19.776H92.26v-1.998h-0.069c-0.787,1.065-2.065,2.636-5.095,2.636
			c-3.599,0-5.63-1.778-6.627-3.137c-1.461-2.095-1.461-5.302-1.461-6.943v-10.334h4.735v10.081c0,1.602,0,5.987,4.14,5.987
			c2.99,0,3.988-2.813,3.988-5.949v-10.119H96.611z"/>
		<path fill="#394573" d="M100.53,201.333h4.347v1.68h0.073c0.389-0.647,1.746-2.357,5.167-2.357c1.067,0,3.846,0.246,5.699,3.097
			c2.07-2.95,4.991-3.097,6.378-3.097c3.884,0,5.811,2.064,6.52,3.065c0.786,1.032,1.499,2.922,1.499,5.844v11.545h-4.74v-10.976
			c0-1.141,0-5.133-3.741-5.133c-1.318,0-2.601,0.716-3.275,1.85c-0.679,1.072-0.717,2.82-0.717,4.032v10.227H113v-10.976
			c0-2.714-1.032-5.133-3.954-5.133c-3.775,0-3.775,4.139-3.775,6.243v9.865h-4.74V201.333z"/>
		<path fill="#394573" d="M153.947,221.11H149.6v-2.459c-1.495,1.779-4.42,3.097-6.913,3.097c-5.094,0-9.618-4.06-9.618-10.649
			c0-6.059,4.416-10.442,9.903-10.442c4.022,0,6.412,2.882,6.558,3.167h0.069v-2.489h4.347V221.11z M143.685,205.001
			c-3.884,0-5.88,3.352-5.88,6.305c0,3.352,2.493,6.096,5.88,6.096c3.279,0,5.772-2.567,5.772-6.235
			C149.457,207.066,146.498,205.001,143.685,205.001z"/>
		<path fill="#394573" d="M157.545,201.333h4.386v1.71c0.782-0.746,2.419-2.388,5.414-2.388c1.711,0,4.313,0.746,5.949,2.742
			c1.819,2.173,1.819,5.486,1.819,7.022v10.689h-4.739v-9.767c0-1.642,0-6.342-3.988-6.342c-0.856,0-2.389,0.433-3.246,1.75
			c-0.855,1.21-0.855,3.274-0.855,4.946v9.412h-4.74V201.333z"/>
		<path fill="#394573" d="M178.925,194.744h4.739v26.366h-4.739V194.744z"/>
		<path fill="#394573" d="M187.441,194.744h4.739v4.346h-4.739V194.744z M187.441,201.333h4.739v19.776h-4.739V201.333z"/>
		<path fill="#394573" d="M196.32,205.541h-1.681v-4.207h1.681c0.107-1.317,0.315-3.739,2.313-5.526
			c1.109-1.032,2.676-1.604,4.141-1.604h1.31v4.672c-1.812,0.038-2.883,0.068-3.021,2.459h2.774v4.207h-2.774v15.569h-4.742V205.541
			z"/>
		<path fill="#394573" d="M210.179,213.339c0.216,1.28,2.065,4.063,5.456,4.063c2.097,0,3.67-0.886,4.556-2.527h4.994
			c-1.141,3.56-4.886,6.873-9.55,6.873c-6.026,0-10.442-4.7-10.442-10.473c0-5.596,4.131-10.619,10.405-10.619
			c6.489,0,10.227,5.31,10.227,10.296c0,0.923-0.139,1.75-0.285,2.388H210.179z M220.976,209.535
			c-0.531-3.177-2.813-4.533-5.342-4.533c-1.926,0-4.708,0.855-5.595,4.533H220.976z"/>
		<path fill="#9CA3C1" d="M248.737,221.11h-4.347v-2.459c-1.495,1.779-4.417,3.097-6.914,3.097c-5.095,0-9.617-4.06-9.617-10.649
			c0-6.059,4.415-10.442,9.903-10.442c4.022,0,6.411,2.882,6.558,3.167h0.07v-2.489h4.347V221.11z M238.478,205.001
			c-3.885,0-5.88,3.352-5.88,6.305c0,3.352,2.489,6.096,5.88,6.096c3.276,0,5.772-2.567,5.772-6.235
			C244.25,207.066,241.291,205.001,238.478,205.001z"/>
		<path fill="#9CA3C1" d="M252.335,194.744h4.74v26.366h-4.74V194.744z"/>
		<path fill="#9CA3C1" d="M260.89,194.744h4.74v26.366h-4.74V194.744z"/>
		<path fill="#9CA3C1" d="M269.406,194.744h4.741v4.346h-4.741V194.744z M269.406,201.333h4.741v19.776h-4.741V201.333z"/>
		<path fill="#9CA3C1" d="M297.915,221.11h-4.347v-2.459c-1.503,1.779-4.424,3.097-6.914,3.097c-5.093,0-9.624-4.06-9.624-10.649
			c0-6.059,4.422-10.442,9.91-10.442c4.023,0,6.413,2.882,6.56,3.167h0.068v-2.489h4.347V221.11z M287.649,205.001
			c-3.885,0-5.88,3.352-5.88,6.305c0,3.352,2.496,6.096,5.88,6.096c3.282,0,5.772-2.567,5.772-6.235
			C293.421,207.066,290.461,205.001,287.649,205.001z"/>
		<path fill="#9CA3C1" d="M301.514,201.333h4.385v1.71c0.778-0.746,2.42-2.388,5.41-2.388c1.711,0,4.316,0.746,5.95,2.742
			c1.818,2.173,1.818,5.486,1.818,7.022v10.689h-4.739v-9.767c0-1.642,0-6.342-3.984-6.342c-0.863,0-2.39,0.433-3.244,1.75
			c-0.856,1.21-0.856,3.274-0.856,4.946v9.412h-4.739V201.333z"/>
		<path fill="#9CA3C1" d="M342.708,214.658c-1.603,4.416-5.271,7.09-9.903,7.09c-5.063,0-10.512-4.06-10.512-10.612
			c0-6.056,5.017-10.479,10.474-10.479c2.496,0,7.906,1.139,9.941,7.237h-5.349c-0.57-1.004-1.672-2.892-4.593-2.892
			c-2.883,0-5.734,2.136-5.734,6.195c0,3.392,2.382,6.205,5.949,6.205c1.564,0,3.13-0.746,4.378-2.744H342.708z"/>
		<path fill="#9CA3C1" d="M349.868,213.339c0.216,1.28,2.065,4.063,5.456,4.063c2.104,0,3.669-0.886,4.555-2.527h4.994
			c-1.141,3.56-4.885,6.873-9.549,6.873c-6.026,0-10.443-4.7-10.443-10.473c0-5.596,4.131-10.619,10.405-10.619
			c6.481,0,10.228,5.31,10.228,10.296c0,0.923-0.14,1.75-0.286,2.388H349.868z M360.666,209.535
			c-0.533-3.177-2.813-4.533-5.342-4.533c-1.926,0-4.709,0.855-5.596,4.533H360.666z"/>
	</g>
	<g>
		<linearGradient id="SVGID_6_" gradientUnits="userSpaceOnUse" x1="126.2441" y1="251.6636" x2="126.2441" y2="298.9028">
			<stop  offset="0" style="stop-color:#394573"/>
			<stop  offset="0.16" style="stop-color:#394573"/>
			<stop  offset="0.5152" style="stop-color:#8186A8"/>
			<stop  offset="0.6727" style="stop-color:#74799D"/>
			<stop  offset="0.7939" style="stop-color:#394573"/>
			<stop  offset="0.897" style="stop-color:#394573"/>
			<stop  offset="1" style="stop-color:#394573"/>
		</linearGradient>
		<path fill="url(#SVGID_6_)" d="M148.193,254.458l-15.374,26.137v15.511c0,2.062-0.663,2.797-2.789,2.797h-7.524
			c-2.132,0-2.862-0.735-2.862-2.797v-15.511l-15.305-26.137c-0.929-1.543-0.665-2.795,1.398-2.795h7.987
			c3.327,0,4.257,0.128,5.521,2.449l7.12,13.574l7.319-13.574c1.264-2.321,2.198-2.449,5.458-2.449h7.653
			C148.791,251.664,149.059,252.916,148.193,254.458z"/>
		<linearGradient id="SVGID_7_" gradientUnits="userSpaceOnUse" x1="169.1465" y1="251.6636" x2="169.1465" y2="298.9028">
			<stop  offset="0" style="stop-color:#394573"/>
			<stop  offset="0.16" style="stop-color:#394573"/>
			<stop  offset="0.5152" style="stop-color:#8186A8"/>
			<stop  offset="0.6727" style="stop-color:#74799D"/>
			<stop  offset="0.7939" style="stop-color:#394573"/>
			<stop  offset="0.897" style="stop-color:#394573"/>
			<stop  offset="1" style="stop-color:#394573"/>
		</linearGradient>
		<path fill="url(#SVGID_7_)" d="M185.682,254.458v5.98c0,2.13-0.729,2.862-2.859,2.862h-17.57v5.914h14.042
			c2.129,0,2.862,0.732,2.862,2.799v5.999c0,2.126-0.732,2.858-2.862,2.858h-14.042v6.389h18.168c2.063,0,2.795,0.664,2.795,2.799
			v6.047c0,2.062-0.732,2.797-2.795,2.797h-28.481c-2.129,0-2.861-0.735-2.861-2.797v-41.647c0-2.063,0.732-2.795,2.861-2.795
			h27.884C184.952,251.664,185.682,252.396,185.682,254.458z"/>
		<linearGradient id="SVGID_8_" gradientUnits="userSpaceOnUse" x1="210.8125" y1="251.6636" x2="210.8125" y2="298.9028">
			<stop  offset="0" style="stop-color:#394573"/>
			<stop  offset="0.16" style="stop-color:#394573"/>
			<stop  offset="0.5152" style="stop-color:#8186A8"/>
			<stop  offset="0.6727" style="stop-color:#74799D"/>
			<stop  offset="0.7939" style="stop-color:#394573"/>
			<stop  offset="0.897" style="stop-color:#394573"/>
			<stop  offset="1" style="stop-color:#394573"/>
		</linearGradient>
		<path fill="url(#SVGID_8_)" d="M231.493,298.903h-7.188c-3.46,0-4.454-0.735-4.994-2.797l-1.526-4.783h-14.38l-1.525,4.783
			c-0.667,2.062-1.534,2.797-4.86,2.797h-6.988c-2.064,0-2.463-0.929-1.794-2.733l15.302-42.187c0.667-1.93,1.534-2.319,3.464-2.319
			h7.581c1.93,0,2.793,0.454,3.464,2.192l15.38,42.313C234.093,297.974,233.492,298.903,231.493,298.903z M210.856,263.771h-0.663
			c0,0,0.07,4.797-1.264,9.252l-2.458,7.849h8.323l-2.47-7.782C210.996,268.568,210.856,263.771,210.856,263.771z"/>
		<linearGradient id="SVGID_9_" gradientUnits="userSpaceOnUse" x1="256.7651" y1="251.6636" x2="256.7651" y2="298.9028">
			<stop  offset="0" style="stop-color:#394573"/>
			<stop  offset="0.16" style="stop-color:#394573"/>
			<stop  offset="0.5152" style="stop-color:#8186A8"/>
			<stop  offset="0.6727" style="stop-color:#74799D"/>
			<stop  offset="0.7939" style="stop-color:#394573"/>
			<stop  offset="0.897" style="stop-color:#394573"/>
			<stop  offset="1" style="stop-color:#394573"/>
		</linearGradient>
		<path fill="url(#SVGID_9_)" d="M275.445,267.687c0,6.52-2.662,11.188-7.198,13.726c0.667,0.854,1.264,1.783,1.804,2.857
			l5.979,11.38c0.945,1.786,0.476,3.253-1.718,3.253h-7.187c-3.529,0-5.056-0.862-6.131-3.187l-4.258-9.122
			c-1.122-2.258-2.263-3.398-4.994-3.398h-1.526v12.91c0,2.062-0.667,2.797-2.794,2.797h-7.526c-2.13,0-2.858-0.735-2.858-2.797
			v-41.647c0-2.063,0.729-2.795,2.858-2.795h18.972C268.914,251.664,275.445,257.382,275.445,267.687z M257.399,263.301h-7.183
			v8.776h7.183c2.798,0,4.394-1.722,4.394-4.454C261.792,264.957,260.262,263.301,257.399,263.301z"/>
		<linearGradient id="SVGID_10_" gradientUnits="userSpaceOnUse" x1="299.3042" y1="250.6509" x2="299.3042" y2="299.9087">
			<stop  offset="0" style="stop-color:#394573"/>
			<stop  offset="0.16" style="stop-color:#394573"/>
			<stop  offset="0.5152" style="stop-color:#8186A8"/>
			<stop  offset="0.6727" style="stop-color:#74799D"/>
			<stop  offset="0.7939" style="stop-color:#394573"/>
			<stop  offset="0.897" style="stop-color:#394573"/>
			<stop  offset="1" style="stop-color:#394573"/>
		</linearGradient>
		<path fill="url(#SVGID_10_)" d="M299.355,250.651c9.854,0,15.43,2.929,18.567,9.317c0.929,1.935,0.389,2.943-1.596,3.741
			l-6.662,2.858c-1.788,0.798-2.517,0.521-3.592-1.398c-1.269-2.534-3.661-3.465-6.718-3.465c-4.531,0-6.319,1.122-6.319,3.465
			c0,2.86,3.915,3.46,8.714,4.046c7.722,1.072,17.699,2.945,17.699,15.511c0,9.783-8.845,15.183-20.625,15.183
			c-9.919,0-16.839-3.398-19.364-10.324c-0.728-1.995-0.13-2.924,1.793-3.656l6.258-2.258c1.996-0.671,2.926-0.475,3.931,1.46
			c1.187,2.328,3.788,3.526,7.515,3.526c4.45,0,7.117-0.926,7.117-3.801c0-2.589-3.398-3.316-7.788-3.918
			c-7.784-1.075-18.693-2.471-18.693-15.379C279.591,256.78,286.647,250.651,299.355,250.651z"/>
	</g>
</g>
</svg>
